<?xml version="1.0" standalone="no"?>
<!DOCTYPE svg PUBLIC "-//W3C//DTD SVG 20010904//EN"
 "http://www.w3.org/TR/2001/REC-SVG-20010904/DTD/svg10.dtd">
<svg version="1.0" xmlns="http://www.w3.org/2000/svg"
 width="828.000000pt" height="1124.000000pt" viewBox="0 0 828.000000 1124.000000"
 preserveAspectRatio="xMidYMid meet">

<g transform="translate(0.000000,1124.000000) scale(0.100000,-0.100000)"
fill="#000000" stroke="none">
<path d="M2400 7970 l0 -330 330 0 330 0 0 330 0 330 -330 0 -330 0 0 -330z
m570 -5 l0 -235 -235 0 -235 0 0 235 0 235 235 0 235 0 0 -235z"/>
<path d="M2590 7970 l0 -140 140 0 140 0 0 140 0 140 -140 0 -140 0 0 -140z"/>
<path d="M3157 8293 c-9 -8 -9 -56 -1 -77 5 -13 23 -16 95 -16 l89 0 0 50 0
50 -88 0 c-49 0 -92 -3 -95 -7z"/>
<path d="M3440 8250 l0 -50 45 0 45 0 0 -45 0 -45 -44 0 -45 0 -3 -47 c-3 -42
-6 -48 -27 -51 -12 -2 -34 -1 -47 2 -21 6 -24 12 -24 52 l0 45 -92 -3 -93 -3
0 -90 0 -90 48 -3 47 -3 0 -45 0 -44 -45 0 c-56 0 -57 -5 -53 -163 l3 -117
-140 -2 -140 -3 -3 -142 -3 -143 -44 0 -45 0 0 -89 0 -90 -47 -3 -48 -3 0 -45
0 -45 -92 -3 -92 -3 -3 -92 -3 -92 -45 0 -45 0 -3 -47 -3 -48 50 0 51 0 0 -45
0 -45 -50 0 -50 0 0 -50 0 -50 95 0 95 0 0 -45 0 -45 -96 0 -95 0 3 -47 3 -48
45 0 45 0 3 -47 3 -48 -50 0 -51 0 0 -140 0 -140 50 0 50 0 0 -45 0 -45 -50 0
-50 0 0 -50 0 -50 50 0 50 0 0 -45 0 -45 -51 0 -50 0 3 -47 3 -47 93 -4 92 -4
0 96 0 96 51 0 51 0 -2 -82 c-4 -115 -6 -109 43 -106 l42 3 3 93 3 92 44 0 45
0 0 95 0 95 -45 0 -45 0 0 -45 0 -45 -95 0 -95 0 0 45 0 45 -45 0 -45 0 0 45
0 45 235 0 235 0 0 -45 0 -45 45 0 45 0 0 45 0 45 45 0 45 0 0 -90 0 -90 190
0 190 0 0 -95 0 -95 -45 0 -45 0 0 45 0 45 -143 0 -143 0 -1 38 c-1 20 -1 43
-2 50 -1 8 -26 12 -91 12 l-90 0 0 -50 0 -49 93 -3 92 -3 1 -30 c1 -54 2 -55
49 -55 l45 0 0 -49 0 -50 -44 3 c-32 3 -46 -1 -50 -11 -8 -20 -8 -237 0 -257
4 -11 19 -16 50 -16 l44 0 0 -44 0 -45 -47 -3 c-48 -3 -48 -3 -51 -41 -3 -31
1 -39 19 -45 12 -5 31 -7 43 -6 11 1 24 3 29 3 4 1 7 21 7 46 l0 45 45 0 45 0
0 45 0 45 50 0 50 0 0 -90 0 -90 45 0 45 0 0 90 0 90 95 0 95 0 0 -45 0 -45
-50 0 -50 0 0 -95 0 -95 -89 0 -90 0 -3 48 -3 47 -92 3 -93 3 0 -51 0 -50 -50
0 -50 0 0 -45 0 -45 50 0 50 0 0 -50 0 -50 328 2 327 3 0 45 0 45 -47 3 -48 3
0 45 0 44 -45 0 -45 0 0 45 0 45 38 1 c20 1 40 1 45 0 4 0 7 64 7 144 l0 145
50 0 50 0 0 45 0 45 45 0 45 0 0 -185 0 -185 -45 0 c-48 0 -46 4 -49 -67 -1
-26 2 -28 47 -31 l47 -3 0 -95 0 -94 140 0 140 0 0 50 0 50 -45 0 -45 0 0 90
0 89 -50 7 -50 7 0 43 0 44 50 0 50 0 0 -44 c0 -48 9 -56 61 -56 28 0 29 -2
29 -45 l0 -45 45 0 45 0 0 -45 0 -45 95 0 95 0 0 45 0 45 -90 0 c-78 0 -90 2
-92 18 -1 9 -2 51 -2 92 l-2 75 -47 3 -47 3 0 45 0 44 95 0 95 0 0 -90 0 -90
95 0 95 0 0 140 0 140 45 0 45 0 0 45 0 45 44 0 45 0 3 48 c3 46 3 47 38 48
60 1 60 1 60 49 l0 45 -50 0 -50 0 0 45 0 45 50 0 50 0 0 50 0 50 45 0 45 0 0
45 0 45 140 0 140 0 0 -95 0 -95 -45 0 -45 0 0 -45 0 -45 -95 0 -95 0 0 -95 0
-95 -45 0 -45 0 0 -45 0 -45 -50 0 -50 0 0 -50 0 -50 -45 0 -45 0 0 -235 0
-235 45 0 45 0 0 190 0 190 50 0 50 0 0 -45 c0 -46 1 -47 50 -47 11 0 25 0 30
1 6 1 10 21 10 47 l0 45 48 -3 47 -3 0 -40 0 -40 -48 -3 -47 -3 0 -95 0 -94
-45 0 -45 0 0 -50 0 -51 93 3 92 3 0 45 0 45 93 3 92 3 0 -51 0 -50 95 0 94 0
3 143 3 142 45 0 45 0 1 -45 1 -45 46 -3 47 -3 0 95 0 95 -47 3 -48 3 1 43 2
42 -49 0 -49 0 0 95 0 95 45 0 44 0 3 -92 3 -93 93 -3 92 -3 0 -139 0 -140 50
0 50 0 0 280 0 280 -22 5 c-13 3 -32 3 -43 1 -11 -3 -23 -5 -27 -5 -5 -1 -8
-21 -8 -46 l0 -45 -45 0 -45 0 0 45 c0 41 2 45 25 46 14 1 30 3 35 4 6 1 15 3
20 4 6 0 10 21 10 46 l0 45 50 0 50 0 0 95 0 95 -50 0 -50 0 0 45 0 44 -92 3
-93 3 -3 43 -3 42 -45 0 -44 0 0 50 0 50 48 0 47 0 0 43 0 42 48 3 48 3 -3 47
-3 47 -90 1 -90 2 -3 46 -3 46 -45 0 -44 0 0 45 0 45 90 0 89 0 3 93 3 92 48
3 47 3 0 -95 0 -95 -47 -3 -48 -3 0 -40 0 -40 48 -3 47 -3 0 45 0 46 95 0 95
0 0 95 0 95 -95 0 -95 0 0 45 c0 29 4 45 13 46 6 0 48 1 92 2 l80 2 3 143 3
142 -96 0 -95 0 0 45 0 45 95 0 95 0 -2 188 -3 187 -30 1 c-63 3 -65 1 -65
-97 l0 -90 -92 3 -93 3 0 40 0 40 48 3 48 3 -3 47 -3 47 -92 3 -93 3 0 -146 0
-145 -140 0 -140 0 0 -90 0 -90 -95 0 -95 0 0 90 0 90 -45 0 -45 0 0 50 0 50
140 0 140 0 0 45 0 45 95 0 95 0 0 45 c0 57 1 57 -210 53 l-165 -3 -3 -47 -3
-48 -45 0 -44 0 0 -45 0 -45 -50 0 -50 0 0 45 0 45 -44 0 -45 0 -3 48 -3 47
-42 0 -43 0 0 47 0 48 45 0 45 0 0 45 0 45 45 0 45 0 0 -89 c0 -97 1 -98 60
-96 l35 2 3 91 3 92 44 0 45 0 0 -45 0 -45 51 0 50 0 -3 43 -3 42 -47 3 -48 3
0 94 0 94 48 3 47 3 0 40 0 40 -47 3 -48 3 0 49 0 49 48 3 47 3 3 43 3 42
-190 0 -191 0 0 50 0 50 -45 0 -45 0 0 -50 0 -50 -95 0 -95 0 0 51 0 50 -47
-3 -48 -3 -3 -47 -3 -48 -45 0 -44 0 0 50 0 50 -45 0 -45 0 0 -50 0 -50 -50 0
-50 0 0 -45 0 -45 -45 0 -45 0 0 95 0 95 -140 0 -140 0 0 -50 0 -50 45 0 45 0
0 -45 0 -45 44 0 c47 0 54 -7 51 -55 -3 -36 8 -45 58 -45 l37 0 0 -45 0 -45
-48 0 -49 0 4 44 c5 47 -3 55 -47 51 -14 -1 -31 -3 -37 -4 -8 -1 -13 -17 -13
-46 l0 -45 -45 0 -45 0 0 95 0 95 -50 0 -50 0 0 45 0 45 -45 0 -45 0 0 50 0
50 -45 0 -45 0 0 -50z m840 -185 c0 -42 -2 -45 -27 -46 -58 -3 -58 -2 -61 -51
l-3 -48 45 0 46 0 0 -45 0 -45 48 0 47 0 -2 126 c-1 69 1 132 4 140 4 11 27
14 94 14 l89 0 0 -50 0 -50 -45 0 -45 0 0 -90 0 -90 45 0 45 0 0 45 0 45 95 0
95 0 0 95 0 95 45 0 45 0 0 -140 0 -140 50 0 50 0 0 -50 0 -50 -50 0 -50 0 0
50 0 50 -90 0 -90 0 0 -95 0 -95 -50 0 -50 0 0 -95 0 -95 50 0 50 0 0 -95 0
-95 -140 0 c-77 0 -141 3 -141 8 -1 4 -3 46 -5 95 l-4 87 50 0 50 0 0 95 0 95
-51 0 -51 0 4 45 3 45 -47 0 -48 0 0 -90 c0 -65 4 -90 13 -91 6 -1 27 -2 46
-3 34 -1 34 -2 34 -46 l0 -45 -46 -3 -47 -3 0 -45 0 -44 -45 0 -45 0 0 45 0
45 -50 0 -50 0 0 -95 0 -95 -45 0 -45 0 0 -70 0 -70 235 0 235 0 0 25 0 25
140 0 140 0 0 -45 0 -45 45 0 45 0 0 45 0 45 50 0 50 0 0 -45 0 -45 45 0 45 0
0 -95 0 -95 -45 0 -45 0 0 45 0 45 -95 0 -95 0 0 50 c0 48 -1 50 -27 50 l-28
0 3 -330 3 -330 24 0 25 0 0 140 0 140 45 0 45 0 0 44 c0 33 4 45 16 48 9 2
73 1 142 -2 l127 -5 0 -40 1 -40 92 -3 92 -3 0 46 c0 48 0 48 63 45 l37 -2 0
51 0 51 -50 0 -50 0 0 95 0 95 50 0 50 0 0 45 0 45 45 0 45 0 0 45 0 45 95 0
95 0 0 -45 0 -45 -95 0 -95 0 0 -44 0 -45 48 -3 47 -3 1 -47 0 -48 -93 0 -93
0 0 -45 0 -45 93 0 92 0 0 43 0 42 93 3 92 3 0 -46 0 -45 -45 0 -45 0 0 -50 0
-51 -127 1 c-71 1 -134 1 -140 1 -10 -1 -13 -26 -13 -91 l0 -90 -50 0 -50 0 0
-95 0 -95 -45 0 -45 0 0 -48 0 -48 43 1 42 0 3 -47 3 -48 -45 0 -46 0 0 -96 0
-95 -47 3 -46 3 2 328 2 327 -50 0 -51 0 0 -95 0 -95 -45 0 -45 0 0 -45 0 -45
45 0 45 0 0 -190 0 -190 -45 0 -45 0 0 -90 0 -90 -95 0 -95 0 0 25 c0 24 -2
25 -22 14 -13 -7 -57 -16 -98 -20 -41 -5 -91 -11 -110 -14 -43 -8 -80 21 -80
63 -1 27 -30 72 -48 72 -11 0 -22 -48 -22 -101 l0 -39 -45 0 -45 0 0 -50 0
-50 51 0 51 0 -4 -42 -3 -43 48 -3 48 -3 -3 -47 -3 -47 -90 0 -90 0 -3 48 -3
47 -45 0 -44 0 0 95 0 95 45 0 45 0 0 45 0 45 -45 0 c-41 0 -45 2 -45 25 0 23
-3 25 -50 25 -47 0 -50 -2 -50 -25 0 -23 -4 -25 -45 -25 -41 0 -45 2 -45 25
l0 25 -140 0 -140 0 0 -25 c0 -23 -3 -25 -50 -25 l-50 0 0 -45 0 -45 95 0 95
0 0 45 0 45 44 0 c47 0 52 -6 51 -55 0 -29 -2 -30 -47 -33 l-48 -3 0 -50 0
-49 -95 0 -95 0 0 50 0 50 -45 0 -45 0 0 45 0 45 -45 0 -45 0 0 45 0 45 -50 0
-51 0 3 143 c3 141 3 142 27 145 12 2 34 1 47 -2 21 -6 24 -12 24 -51 l0 -45
45 0 45 0 0 95 0 95 -45 0 -45 0 0 235 0 235 -95 0 -95 0 0 -50 0 -49 -42 4
c-24 2 -46 4 -49 4 -4 1 -6 20 -5 44 l2 42 47 3 47 3 0 44 0 44 -47 3 -48 3 0
45 0 45 -48 3 -47 3 0 -50 0 -51 -95 0 -95 0 0 140 0 140 95 0 95 0 0 50 0 50
-45 0 -45 0 0 45 0 45 185 0 185 0 0 -45 0 -45 95 0 96 0 -3 93 -3 92 -42 3
-43 3 0 140 0 139 90 0 90 0 0 45 0 45 -90 0 -90 0 0 44 0 45 90 3 90 3 0 -47
0 -48 50 0 50 0 0 -45 0 -45 45 0 45 0 0 46 0 45 48 -3 47 -3 -1 -42 -1 -43
49 0 48 0 0 45 0 45 45 0 45 0 0 95 0 95 95 0 95 0 0 -45z m-962 -51 c19 -4
22 -11 22 -49 l0 -45 -45 0 -45 0 0 48 c0 51 9 57 68 46z m1705 -3 c4 -1 7
-21 7 -46 l0 -45 -45 0 -45 0 0 44 c0 52 6 55 83 47z m-1683 -324 c0 -143 0
-144 -22 -141 -13 1 -33 3 -45 3 -23 1 -23 3 -23 141 l0 140 45 0 45 0 0 -143z
m1500 -377 l0 -50 -45 0 -45 0 0 50 0 50 45 0 45 0 0 -50z m-560 -95 l0 -45
-45 0 -45 0 0 45 0 45 45 0 45 0 0 -45z m940 -280 l0 -45 -47 0 -48 0 0 45 0
45 48 0 47 0 0 -45z m-2348 -92 l3 -48 48 -3 47 -3 0 -45 0 -44 44 0 45 0 3
47 c3 45 4 47 36 48 45 2 64 -18 57 -61 l-5 -34 50 0 49 0 3 47 c3 50 5 51 76
44 7 -1 12 -17 12 -46 l0 -45 -45 0 -45 0 0 -95 0 -95 45 0 45 0 0 -45 0 -45
-44 0 -45 0 -3 -47 -3 -48 -45 0 c-51 0 -47 8 -49 -112 l-1 -73 -45 0 -45 0 0
-50 0 -50 -45 0 -45 0 0 50 0 50 45 0 45 0 0 45 0 45 -46 0 -45 0 3 48 3 47
43 0 42 0 0 48 0 47 -45 0 -45 0 0 -44 0 -45 -47 -3 -48 -3 -3 -47 -3 -48 -92
0 -92 0 0 -42 0 -43 -92 -3 -93 -3 0 46 0 45 45 0 45 0 0 96 0 95 48 -3 c42
-3 47 -5 48 -28 1 -14 2 -32 3 -41 1 -11 13 -18 34 -22 54 -8 57 -3 57 94 l0
89 -95 0 -95 0 0 95 0 95 -45 0 -45 0 0 48 0 47 45 -1 45 -1 0 49 0 48 139 0
140 0 3 -47z m188 -4 l0 -50 -42 3 -43 4 -3 47 -3 47 45 0 46 0 0 -51z m2440
-561 l0 -48 -45 0 -45 0 0 43 c0 24 2 46 5 49 3 2 23 4 45 4 l40 0 0 -48z m0
-378 l0 -140 95 0 95 0 0 50 0 50 45 0 45 0 0 -50 0 -50 -45 0 -45 0 0 -95 0
-95 -95 0 -95 0 0 50 0 50 -95 0 -95 0 0 45 0 45 50 0 50 0 0 140 0 140 45 0
45 0 0 -140z m-2910 -90 l0 -50 -45 0 -45 0 0 50 0 50 45 0 45 0 0 -50z m1500
0 l0 -50 -45 0 -45 0 0 -95 0 -95 45 0 45 0 0 -45 0 -45 -45 0 -45 0 0 44 c0
49 -6 54 -56 48 -33 -4 -34 -6 -34 -48 l0 -44 -50 0 -50 0 0 -45 0 -45 -95 0
-95 0 0 45 0 45 -45 0 -45 0 0 -45 0 -45 -45 0 -45 0 0 45 0 45 -50 0 -50 0 0
-95 0 -95 -45 0 -46 0 3 143 3 142 40 0 40 0 3 48 3 47 50 0 49 0 0 -95 0 -95
45 0 45 0 0 95 0 95 45 0 45 0 0 -95 0 -95 50 0 50 0 0 95 0 94 93 3 92 3 -3
43 -3 42 51 0 50 0 0 50 0 50 45 0 45 0 0 -50z m660 -45 l0 -95 45 0 45 0 0
-49 0 -48 -37 2 c-21 2 -41 4 -45 4 -5 1 -8 21 -8 46 l0 45 -45 0 -45 0 0
-140 0 -140 -50 0 -50 0 0 -50 0 -50 -45 0 -45 0 0 49 0 50 -47 3 -48 3 -3 43
-3 42 50 0 51 0 0 -45 0 -45 45 0 45 0 0 140 0 140 50 0 50 0 0 95 0 95 45 0
45 0 0 -95z m553 -194 l107 -1 0 -140 0 -141 -141 3 -141 3 1 140 c0 77 1 141
1 142 0 1 15 0 33 -2 17 -2 80 -4 140 -4z m-1023 -231 l0 -50 -95 0 -95 0 0
50 0 50 95 0 95 0 0 -50z m750 -45 l0 -95 -45 0 -45 0 0 95 0 95 45 0 45 0 0
-95z m380 -235 l0 -140 -50 0 -50 0 0 45 0 45 -92 0 -93 0 0 50 c-1 45 1 51
20 49 70 -5 75 -2 75 46 l0 45 95 0 95 0 0 -140z m-1970 -95 l0 -45 -50 0 -50
0 0 45 0 45 50 0 50 0 0 -45z"/>
<path d="M4090 7780 l0 -140 -45 0 -45 0 0 45 0 45 -45 0 -45 0 0 -45 0 -45
-50 0 -50 0 0 45 0 45 44 0 c48 0 53 6 52 60 -1 35 -2 35 -48 38 l-48 3 0 -50
0 -51 -45 0 -45 0 0 50 0 50 -50 0 -50 0 0 -50 0 -50 -45 0 -45 0 0 -45 0 -45
45 0 45 0 0 45 0 45 50 0 50 0 0 -45 0 -45 45 0 45 0 0 -45 c0 -48 -4 -46 70
-49 25 -1 25 -2 25 -91 l0 -90 -47 -3 -48 -3 0 45 0 46 -45 0 -45 0 0 44 c0
42 -1 44 -36 49 -65 11 -64 14 -64 -189 l0 -184 -45 0 -45 0 0 45 0 45 -140 0
-140 0 0 -45 0 -45 95 0 95 0 0 -45 0 -45 45 0 45 0 0 -50 0 -50 -45 0 -45 0
0 -45 0 -45 45 0 45 0 0 45 c0 41 2 45 25 45 23 0 25 4 25 44 0 28 7 52 19 67
17 22 29 24 115 27 94 4 96 4 96 28 0 22 4 24 45 24 25 0 46 3 46 8 1 4 3 43
5 87 2 44 3 83 4 88 0 4 20 7 45 7 l45 0 0 45 0 45 44 0 45 0 3 48 c3 50 -1
48 76 51 22 1 22 1 22 186 l0 185 -50 0 -50 0 0 -140z"/>
<path d="M4470 7685 l0 -45 45 0 45 0 0 45 0 45 -45 0 -45 0 0 -45z"/>
<path d="M2970 7125 l0 -45 45 0 45 0 0 45 0 45 -45 0 -45 0 0 -45z"/>
<path d="M3977 6900 c-5 -21 -14 -31 -32 -36 -17 -4 -25 -13 -25 -28 0 -26
-10 -43 -77 -136 -32 -44 -53 -84 -53 -99 0 -29 30 -114 82 -236 56 -130 81
-222 69 -256 l-10 -29 220 0 c211 0 219 1 219 20 0 39 41 127 96 205 30 44 69
101 86 128 17 26 33 46 35 43 2 -2 -1 -25 -7 -52 -12 -50 2 -124 22 -124 15 0
9 281 -8 330 -9 25 -19 47 -24 50 -16 10 -70 122 -70 144 0 30 -32 59 -54 50
-10 -4 -22 -18 -27 -31 -7 -20 -4 -31 22 -63 17 -21 32 -51 34 -67 2 -15 7
-40 11 -55 3 -15 3 -44 0 -63 -6 -32 -10 -35 -43 -35 -20 0 -50 4 -67 10 -17
5 -48 13 -69 17 l-37 8 27 40 c16 22 33 45 38 51 6 6 19 35 29 65 17 49 17 57
3 90 -11 27 -27 42 -61 59 -58 28 -106 21 -148 -20 -24 -25 -28 -36 -28 -87 0
-32 7 -71 15 -87 18 -35 19 -65 3 -71 -7 -3 -61 -7 -120 -9 -107 -4 -108 -4
-108 19 0 12 9 34 20 48 11 14 20 34 20 46 0 11 12 28 26 38 14 10 37 28 52
41 l27 22 -30 -2 c-29 -3 -30 -2 -33 45 -3 53 -16 62 -25 17z"/>
<path d="M3530 6655 c0 -41 2 -45 25 -45 23 0 25 4 25 45 0 41 -2 45 -25 45
-23 0 -25 -4 -25 -45z"/>
<path d="M4840 6655 l0 -45 50 0 50 0 0 45 0 45 -50 0 -50 0 0 -45z"/>
<path d="M4748 6373 c-3 -43 -5 -48 -25 -46 -29 3 -32 -32 -4 -47 28 -15 31
-13 31 19 l0 28 93 0 92 -1 3 47 3 47 -95 0 -95 0 -3 -47z"/>
<path d="M3440 6090 l0 -50 45 0 45 0 0 -45 0 -45 45 0 c43 0 45 1 45 28 0 35
-27 62 -63 62 -26 0 -27 2 -27 50 l0 50 -45 0 -45 0 0 -50z"/>
<path d="M4855 6090 l0 -50 43 0 42 0 0 50 0 50 -43 0 -42 0 0 -50z"/>
<path d="M2594 6791 c-2 -2 -4 -24 -4 -48 l0 -43 95 0 95 0 0 45 c0 25 -3 45
-7 46 -40 3 -176 3 -179 0z"/>
<path d="M3060 6656 l0 -46 -95 0 -95 0 0 -50 0 -50 95 0 95 0 0 50 0 50 48 0
48 0 -1 43 -1 42 -47 3 -47 3 0 -45z"/>
<path d="M5220 5435 l0 -45 45 0 45 0 0 45 0 45 -45 0 -45 0 0 -45z"/>
<path d="M5220 7970 l0 -330 330 0 330 0 0 330 0 330 -330 0 -330 0 0 -330z
m560 -5 l0 -235 -235 0 -235 0 0 235 0 235 235 0 235 0 0 -235z"/>
<path d="M5410 7970 l0 -140 140 0 140 0 0 140 0 140 -140 0 -140 0 0 -140z"/>
<path d="M2505 7542 c-3 -3 -5 -25 -5 -49 l0 -43 -50 0 -50 0 0 -185 0 -185
50 0 50 0 0 45 0 45 45 0 45 0 0 -45 0 -45 50 0 50 0 0 45 0 45 -50 0 -50 0 0
95 0 95 95 0 96 0 -3 92 -3 93 -42 3 c-34 2 -43 -1 -48 -18 -3 -11 -3 -24 0
-30 3 -6 3 -19 0 -30 -5 -16 -15 -20 -51 -20 l-44 0 0 50 0 50 -40 -2 c-22 -1
-42 -4 -45 -6z"/>
<path d="M5780 6280 l0 -140 50 0 50 0 0 140 0 140 -50 0 -50 0 0 -140z"/>
<path d="M2972 5623 l3 -46 43 -3 42 -3 0 50 0 49 -46 0 -45 0 3 -47z"/>
<path d="M2400 5150 l0 -330 330 0 330 0 0 330 0 330 -330 0 -330 0 0 -330z
m570 5 l0 -235 -235 0 -235 0 0 235 0 235 235 0 235 0 0 -235z"/>
<path d="M2590 5150 l0 -140 140 0 140 0 0 140 0 140 -140 0 -140 0 0 -140z"/>
<path d="M5598 4874 c-2 -25 -1 -47 1 -50 2 -2 67 -4 143 -4 l138 0 0 50 0 50
-139 0 -139 0 -4 -46z"/>
<path d="M3462 4400 c-12 -25 -16 -43 -9 -47 5 -3 14 2 19 11 10 17 38 22 38
7 0 -27 -15 -41 -42 -41 -17 0 -27 -4 -23 -10 3 -5 17 -10 31 -10 13 0 24 -3
24 -6 0 -11 -23 -49 -42 -70 -15 -17 -16 -24 -7 -30 8 -4 23 5 40 24 l28 31
20 -25 c12 -15 22 -21 26 -14 4 6 -5 26 -19 44 -26 35 -25 46 6 46 10 0 18 5
18 10 0 6 -9 10 -20 10 -15 0 -20 7 -20 25 0 18 5 25 20 25 11 0 20 7 20 15 0
10 -11 15 -35 15 -24 0 -35 5 -35 15 0 27 -18 16 -38 -25z"/>
<path d="M4507 4402 c-42 -42 -47 -56 -17 -47 17 5 20 2 20 -24 0 -17 5 -31
10 -31 6 0 10 19 10 43 0 23 7 51 15 61 8 11 15 23 15 28 0 16 -17 7 -53 -30z"/>
<path d="M4600 4406 c0 -28 -4 -35 -25 -40 -15 -4 -23 -11 -19 -17 3 -6 15 -9
25 -6 14 4 19 0 19 -14 0 -16 8 -19 55 -19 30 0 55 4 55 9 0 5 3 16 6 25 4 11
1 16 -10 16 -9 0 -16 -7 -16 -15 0 -10 -11 -15 -35 -15 -48 0 -46 23 5 51 22
13 40 26 40 29 0 18 -15 17 -38 0 -33 -26 -42 -25 -42 5 0 14 -4 25 -10 25 -5
0 -10 -15 -10 -34z"/>
<path d="M3740 4420 c0 -5 23 -10 51 -10 64 0 61 -16 -9 -50 -28 -14 -51 -28
-51 -32 -2 -15 34 -8 67 12 42 26 42 26 42 -10 0 -20 5 -30 14 -30 11 0 16 15
18 53 l3 52 48 3 c26 2 47 7 47 13 0 5 -49 9 -115 9 -70 0 -115 -4 -115 -10z"/>
<path d="M4134 4388 c-33 -63 -16 -203 25 -216 10 -4 12 0 6 14 -28 69 -28
143 0 217 12 31 -14 18 -31 -15z"/>
<path d="M4765 4403 c24 -56 29 -115 14 -174 -12 -44 -13 -59 -4 -59 38 0 53
158 22 218 -18 33 -45 46 -32 15z"/>
<path d="M3590 4308 l0 -103 50 -1 50 0 -3 103 -2 103 -47 0 -48 0 0 -102z
m70 7 c0 -73 -1 -75 -25 -75 -24 0 -25 2 -25 75 0 73 1 75 25 75 24 0 25 -2
25 -75z"/>
<path d="M4250 4394 c0 -10 -6 -14 -15 -10 -18 7 -20 -5 -3 -22 9 -9 9 -12 0
-12 -7 0 -12 -5 -12 -11 0 -6 7 -9 15 -5 9 3 15 0 15 -9 0 -8 5 -15 10 -15 6
0 10 7 10 15 0 9 6 12 15 9 8 -4 15 -1 15 5 0 6 -5 11 -12 11 -9 0 -9 3 0 12
17 17 15 29 -3 22 -9 -4 -15 0 -15 10 0 9 -4 16 -10 16 -5 0 -10 -7 -10 -16z"/>
<path d="M4380 4396 c0 -12 -5 -16 -15 -13 -8 4 -17 2 -20 -3 -3 -4 1 -10 7
-13 10 -3 10 -8 -2 -22 -14 -16 -13 -17 8 -11 16 6 22 3 22 -8 0 -9 5 -16 10
-16 6 0 10 7 10 15 0 9 6 12 15 9 8 -4 15 -1 15 5 0 6 -5 11 -12 11 -9 0 -9 3
0 12 16 16 15 31 0 25 -7 -2 -18 3 -25 12 -11 14 -12 14 -13 -3z"/>
<path d="M3890 4373 c0 -12 67 -63 74 -56 12 12 6 22 -28 42 -36 22 -46 25
-46 14z"/>
<path d="M4580 4290 c0 -5 -25 -10 -56 -10 -73 0 -70 -24 4 -28 50 -3 52 -4
52 -33 0 -19 5 -29 15 -29 10 0 15 10 15 29 0 29 2 30 53 33 66 4 64 22 -3 26
-27 2 -50 7 -50 13 0 5 -7 9 -15 9 -8 0 -15 -4 -15 -10z"/>
<path d="M3760 4243 l0 -48 95 0 95 0 0 48 0 47 -95 0 -95 0 0 -47z m160 2 c0
-24 -2 -25 -65 -25 -63 0 -65 1 -65 25 0 24 2 25 65 25 63 0 65 -1 65 -25z"/>
<path d="M4032 4234 c4 -21 22 -23 26 -1 2 10 -3 17 -13 17 -10 0 -15 -6 -13
-16z"/>
<path d="M3480 1245 l0 -95 -30 0 -30 0 0 66 c0 62 -1 65 -22 62 -22 -3 -23
-7 -23 -88 l0 -85 133 -3 133 -3 -3 88 c-3 83 -4 88 -25 91 -22 3 -23 0 -23
-62 l0 -66 -30 0 -30 0 0 95 c0 95 0 95 -25 95 -25 0 -25 0 -25 -95z"/>
<path d="M5250 1285 l0 -55 -167 -2 -168 -3 0 -25 0 -25 168 -3 167 -2 0 -60
0 -60 -105 0 -105 0 0 -33 c0 -40 51 -121 121 -192 27 -28 49 -54 49 -57 0
-11 -109 -57 -211 -89 l-97 -30 11 -29 c6 -17 14 -30 18 -30 17 0 217 74 276
101 l64 31 72 -36 c71 -35 245 -96 273 -96 12 0 40 48 32 55 -2 1 -46 14 -98
29 -94 27 -210 73 -210 85 0 3 24 30 54 61 74 75 126 156 126 197 l0 33 -105
0 -105 0 0 60 0 60 163 0 c90 0 166 2 169 5 3 3 3 17 0 30 l-4 25 -164 0 -164
0 0 55 c0 54 0 55 -30 55 -30 0 -30 -1 -30 -55z m184 -317 c-26 -50 -80 -113
-125 -143 l-40 -28 -50 49 c-45 44 -109 131 -109 147 0 4 77 7 170 7 l171 0
-17 -32z"/>
<path d="M3253 1290 c-13 -21 -46 -67 -74 -100 -51 -62 -51 -62 -32 -82 20
-19 20 -19 60 29 22 26 57 74 79 107 37 56 38 59 19 72 -26 19 -27 19 -52 -26z"/>
<path d="M4181 1281 c-15 -58 -78 -193 -123 -264 l-31 -48 20 -21 20 -20 29
46 c16 25 32 46 37 46 4 0 7 -99 7 -220 l0 -220 25 0 24 0 3 293 3 292 28 73
c16 41 27 75 25 77 -2 2 -14 6 -28 10 -24 6 -27 3 -39 -44z"/>
<path d="M4486 1317 c-17 -12 -17 -15 4 -50 l22 -37 -127 0 -126 0 3 -27 3
-26 250 1 c138 1 257 1 265 2 9 0 15 10 15 25 l0 25 -111 0 -111 0 -23 50
c-25 52 -35 58 -64 37z"/>
<path d="M3715 1233 c-8 -96 -26 -174 -54 -239 -19 -42 -19 -43 0 -59 17 -17
19 -16 30 9 12 26 29 35 29 15 0 -6 11 -39 25 -74 30 -74 30 -74 -53 -199 -45
-66 -46 -69 -27 -83 18 -13 22 -11 47 18 15 18 40 56 55 86 15 29 30 53 33 53
3 0 14 -15 25 -32 10 -18 34 -57 53 -87 34 -53 34 -53 54 -34 19 20 19 20 -43
112 l-62 92 15 47 c26 76 37 134 44 227 6 73 10 88 26 93 11 2 18 13 18 28 0
23 -2 24 -84 24 l-84 0 6 45 c4 43 3 45 -21 45 -24 0 -25 -3 -32 -87z m126
-118 c-3 -75 -28 -206 -41 -219 -20 -20 -64 140 -55 202 11 82 12 83 58 80
l41 -3 -3 -60z"/>
<path d="M5935 1273 c-33 -86 -83 -187 -127 -254 -41 -61 -43 -68 -30 -88 8
-11 18 -21 23 -21 5 0 26 26 46 57 l38 56 5 -214 5 -213 25 0 25 0 5 284 5
285 29 69 c24 56 26 70 15 77 -30 19 -46 9 -64 -38z"/>
<path d="M6330 1240 l0 -80 -165 0 -165 0 0 -30 0 -30 165 0 165 0 0 -204 c0
-243 3 -236 -102 -236 -68 0 -70 -1 -64 -22 3 -13 6 -26 6 -30 0 -12 133 -9
169 3 17 6 36 19 41 29 6 11 10 115 10 239 l0 221 70 0 70 0 0 30 0 30 -70 0
-70 0 0 80 0 80 -30 0 -30 0 0 -80z"/>
<path d="M3255 1083 c-16 -31 -47 -80 -69 -107 -21 -28 -43 -56 -48 -62 -5 -7
0 -17 16 -27 23 -15 24 -15 50 21 14 20 27 35 27 32 4 -13 7 -107 8 -228 1
-132 1 -133 24 -130 22 3 22 4 27 233 4 200 7 235 24 264 18 33 18 35 0 48
-10 7 -20 13 -23 13 -3 0 -19 -26 -36 -57z"/>
<path d="M4320 1075 l0 -25 205 0 205 0 0 25 0 25 -205 0 -205 0 0 -25z"/>
<path d="M3360 1015 l0 -25 130 0 130 0 0 25 0 25 -130 0 -130 0 0 -25z"/>
<path d="M6070 1015 c-13 -16 -15 -12 58 -122 54 -81 54 -82 78 -66 28 18 32
8 -55 135 -48 70 -60 78 -81 53z"/>
<path d="M4320 955 l0 -25 205 0 205 0 0 25 0 25 -205 0 -205 0 0 -25z"/>
<path d="M3386 903 c-3 -16 -5 -57 -5 -93 0 -69 -12 -113 -39 -143 -16 -18
-16 -20 3 -33 26 -20 36 -14 62 36 17 33 23 60 23 111 0 97 2 99 71 99 l59 0
0 -78 c0 -63 4 -82 18 -94 16 -15 21 -12 72 33 52 46 54 49 38 66 -17 16 -19
16 -41 -5 -13 -12 -26 -22 -30 -22 -4 0 -7 34 -7 75 l0 75 -109 0 -109 0 -6
-27z"/>
<path d="M4320 725 l0 -125 205 0 205 0 0 125 0 125 -205 0 -205 0 0 -125z
m358 3 l-3 -73 -147 -3 -148 -3 0 76 0 75 150 0 151 0 -3 -72z"/>
</g>
</svg>
