<?xml version="1.0" standalone="no"?>
<!DOCTYPE svg PUBLIC "-//W3C//DTD SVG 20010904//EN"
 "http://www.w3.org/TR/2001/REC-SVG-20010904/DTD/svg10.dtd">
<svg version="1.0" xmlns="http://www.w3.org/2000/svg"
 width="587.000000pt" height="590.000000pt" viewBox="0 0 587.000000 590.000000"
 preserveAspectRatio="xMidYMid meet">

<g transform="translate(0.000000,590.000000) scale(0.100000,-0.100000)"
fill="#000000" stroke="none">
<path d="M270 5355 l0 -505 505 0 505 0 0 505 0 505 -505 0 -505 0 0 -505z
m870 0 l0 -365 -365 0 -365 0 0 365 0 365 365 0 365 0 0 -365z"/>
<path d="M560 5355 l0 -215 215 0 215 0 0 215 0 215 -215 0 -215 0 0 -215z"/>
<path d="M1420 5790 l0 -70 75 0 75 0 0 -75 0 -75 70 0 70 0 0 -145 0 -145 75
0 75 0 0 -70 0 -70 -75 0 -75 0 0 -145 0 -145 75 0 75 0 0 -215 0 -215 -145 0
-145 0 0 70 0 70 70 0 70 0 0 75 0 75 -70 0 -70 0 0 -75 0 -75 -75 0 -75 0 0
75 0 75 -505 0 -505 0 0 -75 0 -75 -70 0 -70 0 0 -70 0 -70 70 0 70 0 0 -145
0 -145 -70 0 -70 0 0 -75 0 -75 145 0 145 0 0 -70 0 -70 -145 0 -145 0 0 -70
0 -70 70 0 70 0 0 -220 0 -220 -70 0 -70 0 0 -145 0 -145 70 0 70 0 0 75 0 75
75 0 75 0 0 -145 0 -145 -145 0 -145 0 0 -580 0 -580 70 0 70 0 0 290 0 290
75 0 75 0 0 -145 0 -145 70 0 70 0 0 75 0 75 220 0 220 0 0 -75 0 -75 70 0 70
0 0 -70 0 -70 -360 0 -360 0 0 -75 0 -75 360 0 360 0 0 75 0 75 145 0 145 0 0
-75 0 -75 -75 0 -75 0 0 -505 0 -505 75 0 75 0 0 -70 0 -70 70 0 70 0 0 70 0
70 75 0 75 0 0 -70 0 -70 215 0 215 0 0 70 0 70 70 0 70 0 0 -70 0 -70 290 0
290 0 0 145 0 145 -70 0 -70 0 0 70 0 70 -145 0 -145 0 0 290 0 290 70 0 70 0
0 -70 0 -70 145 0 145 0 0 -145 0 -145 145 0 145 0 0 -75 0 -75 -70 0 -70 0 0
-70 0 -70 70 0 70 0 0 -75 0 -75 75 0 75 0 0 -70 0 -70 140 0 140 0 0 70 0 70
-140 0 -140 0 0 220 0 220 70 0 70 0 0 70 0 70 70 0 70 0 0 -70 0 -70 145 0
145 0 0 -75 0 -75 -215 0 -215 0 0 -70 0 -70 215 0 215 0 0 -75 0 -75 -70 0
-70 0 0 -70 0 -70 145 0 145 0 0 70 0 70 145 0 145 0 0 -70 0 -70 70 0 70 0 0
215 0 215 70 0 70 0 0 -70 0 -70 75 0 75 0 0 70 0 70 290 0 290 0 0 -145 0
-145 -145 0 -145 0 0 75 0 75 -75 0 -75 0 0 -75 0 -75 -70 0 -70 0 0 -70 0
-70 360 0 360 0 0 215 0 215 -70 0 -70 0 0 75 0 75 -75 0 -75 0 0 70 0 70 145
0 145 0 0 145 0 145 -70 0 -70 0 0 70 0 70 70 0 70 0 0 75 0 75 -70 0 -70 0 0
70 0 70 70 0 70 0 0 75 0 75 -70 0 -70 0 0 70 0 70 70 0 70 0 0 75 0 75 -70 0
-70 0 0 -75 0 -75 -75 0 -75 0 0 75 0 75 -70 0 -70 0 0 -75 0 -75 70 0 70 0 0
-70 0 -70 75 0 75 0 0 -75 0 -75 -75 0 -75 0 0 -70 0 -70 -70 0 -70 0 0 145 0
145 -75 0 -75 0 0 -75 0 -75 -70 0 -70 0 0 75 0 75 -145 0 -145 0 0 -75 0 -75
-145 0 -145 0 0 75 0 75 75 0 75 0 0 70 0 70 -145 0 -145 0 0 75 0 75 -75 0
-75 0 0 70 0 70 145 0 145 0 0 70 0 70 -145 0 -145 0 0 75 0 75 75 0 75 0 0
70 0 70 145 0 145 0 0 -70 0 -70 140 0 140 0 0 -75 0 -75 -140 0 -140 0 0 -70
0 -70 70 0 70 0 0 -70 0 -70 70 0 70 0 0 -75 0 -75 75 0 75 0 0 145 0 145 -75
0 -75 0 0 70 0 70 75 0 75 0 0 75 0 75 70 0 70 0 0 215 0 215 75 0 75 0 0 75
0 75 70 0 70 0 0 70 0 70 -70 0 -70 0 0 -70 0 -70 -75 0 -75 0 0 70 0 70 -70
0 -70 0 0 -70 0 -70 -75 0 -75 0 0 70 0 70 -70 0 -70 0 0 75 0 75 70 0 70 0 0
70 0 70 75 0 75 0 0 -70 0 -70 145 0 145 0 0 70 0 70 70 0 70 0 0 -70 0 -70
75 0 75 0 0 -145 0 -145 70 0 70 0 0 215 0 215 -145 0 -145 0 0 145 0 145 75
0 75 0 0 -75 0 -75 70 0 70 0 0 75 0 75 -70 0 -70 0 0 70 0 70 70 0 70 0 0 75
0 75 -70 0 -70 0 0 70 0 70 70 0 70 0 0 75 0 75 -70 0 -70 0 0 -75 0 -75 -145
0 -145 0 0 -145 0 -145 70 0 70 0 0 -70 0 -70 -70 0 -70 0 0 -75 0 -75 -75 0
-75 0 0 75 0 75 -70 0 -70 0 0 -75 0 -75 -75 0 -75 0 0 220 0 220 -70 0 -70 0
0 70 0 70 -70 0 -70 0 0 290 0 290 -145 0 -145 0 0 145 0 145 -145 0 -145 0 0
-145 0 -145 -75 0 -75 0 0 215 0 215 290 0 290 0 0 -70 0 -70 75 0 75 0 0 215
0 215 -75 0 -75 0 0 -70 0 -70 -360 0 -360 0 0 -75 0 -75 -70 0 -70 0 0 145 0
145 -365 0 -365 0 0 -145 0 -145 75 0 75 0 0 -145 0 -145 70 0 70 0 0 -70 0
-70 -145 0 -145 0 0 145 0 145 -70 0 -70 0 0 -145 0 -145 -145 0 -145 0 0 70
0 70 -70 0 -70 0 0 -70 0 -70 -75 0 -75 0 0 145 0 145 -70 0 -70 0 0 70 0 70
-75 0 -75 0 0 75 0 75 360 0 360 0 0 -75 0 -75 -70 0 -70 0 0 -70 0 -70 70 0
70 0 0 70 0 70 75 0 75 0 0 75 0 75 -75 0 -75 0 0 70 0 70 -505 0 -505 0 0
-70z m1590 -145 l0 -75 -70 0 -70 0 0 75 0 75 70 0 70 0 0 -75z m440 -290 l0
-75 70 0 70 0 0 -70 0 -70 70 0 70 0 0 -215 0 -215 145 0 145 0 0 -75 0 -75
-145 0 -145 0 0 75 0 75 -70 0 -70 0 0 -75 0 -75 -145 0 -145 0 0 -70 0 -70
-70 0 -70 0 0 -220 0 -220 -75 0 -75 0 0 -70 0 -70 -70 0 -70 0 0 145 0 145
70 0 70 0 0 70 0 70 -70 0 -70 0 0 220 0 220 -75 0 -75 0 0 140 0 140 75 0 75
0 0 -70 0 -70 70 0 70 0 0 145 0 145 75 0 75 0 0 70 0 70 70 0 70 0 0 75 0 75
75 0 75 0 0 -75z m-1160 -430 l0 -215 -70 0 -70 0 0 -75 0 -75 285 0 285 0 0
-145 0 -145 -145 0 -145 0 0 -70 0 -70 75 0 75 0 0 -75 0 -75 70 0 70 0 0 -70
0 -70 -70 0 -70 0 0 70 0 70 -75 0 -75 0 0 -82 0 -83 287 3 c172 2 289 7 291
12 5 13 149 13 154 1 2 -5 67 -11 146 -13 109 -2 142 0 142 10 0 9 35 12 140
12 l140 0 0 70 0 70 -70 0 -70 0 0 75 0 75 -70 0 -70 0 0 -75 0 -75 -75 0 -75
0 0 75 0 75 75 0 75 0 0 70 0 70 70 0 70 0 0 75 0 75 145 0 145 0 0 -75 0 -75
70 0 70 0 0 -70 0 -70 -70 0 -70 0 0 70 0 70 -75 0 -75 0 0 -145 0 -145 145 0
145 0 0 -70 0 -70 -145 0 -145 0 0 -70 0 -70 220 0 220 0 0 -75 0 -75 -220 0
-220 0 0 75 0 75 -83 0 -83 0 4 -72 c3 -40 8 -74 13 -76 13 -5 11 -142 -1
-142 -6 0 -10 -55 -10 -145 0 -90 4 -145 10 -145 6 0 10 55 10 145 l0 145 70
0 70 0 0 -220 0 -220 75 0 75 0 0 220 0 220 215 0 215 0 0 145 0 145 75 0 75
0 0 70 0 70 70 0 70 0 0 70 0 70 70 0 70 0 0 -70 0 -70 -70 0 -70 0 0 -70 0
-70 -70 0 -70 0 0 -145 0 -145 140 0 140 0 0 -75 0 -75 75 0 75 0 0 75 0 75
70 0 70 0 0 -75 0 -75 -70 0 -70 0 0 -70 0 -70 -75 0 -75 0 0 -75 0 -75 -70 0
-70 0 0 75 0 75 -70 0 -70 0 0 70 0 70 -145 0 -145 0 0 -145 0 -145 -145 0
-145 0 0 -145 0 -145 -75 0 -75 0 0 -70 0 -70 -70 0 -70 0 0 70 0 70 70 0 70
0 0 75 0 75 -70 0 -70 0 0 70 c0 40 -4 70 -10 70 -6 0 -10 -30 -10 -70 0 -40
4 -70 10 -70 6 0 10 -32 10 -75 0 -58 -3 -75 -14 -75 -8 0 -23 -16 -35 -35
-11 -20 -36 -45 -56 -56 -19 -12 -35 -27 -35 -35 0 -11 -17 -14 -75 -14 -43 0
-75 4 -75 10 0 6 -55 10 -145 10 -90 0 -145 -4 -145 -10 0 -6 32 -10 75 -10
l75 0 0 -70 0 -70 -145 0 -145 0 0 -75 0 -75 -75 0 -75 0 0 75 0 75 -70 0 -70
0 0 70 0 70 145 0 c90 0 145 4 145 10 0 6 -55 10 -145 10 -90 0 -145 -4 -145
-10 0 -6 -32 -10 -75 -10 -58 0 -75 3 -75 14 0 8 -16 23 -35 35 -20 11 -45 36
-56 56 -34 57 -49 46 -49 -35 l0 -70 70 0 70 0 0 -145 0 -145 75 0 75 0 0 -70
0 -70 -75 0 -75 0 0 70 0 70 -215 0 -215 0 0 -70 0 -70 145 0 145 0 0 -75 0
-75 145 0 145 0 0 -145 0 -145 -75 0 -75 0 0 -70 0 -70 -70 0 -70 0 0 70 0 70
70 0 70 0 0 75 0 75 -70 0 -70 0 0 70 0 70 -290 0 -290 0 0 -70 0 -70 145 0
145 0 0 -75 0 -75 -70 0 -70 0 0 -70 0 -70 -75 0 -75 0 0 145 0 145 -70 0 -70
0 0 70 0 70 -145 0 -145 0 0 75 0 75 -70 0 -70 0 0 70 0 70 70 0 70 0 0 75 0
75 -215 0 -215 0 0 -75 0 -75 -75 0 -75 0 0 75 0 75 75 0 75 0 0 70 0 70 -220
0 -220 0 0 70 0 70 290 0 290 0 0 75 0 75 145 0 145 0 0 70 0 70 -70 0 -70 0
0 75 0 75 -75 0 -75 0 0 70 0 70 -70 0 -70 0 0 -70 0 -70 -145 0 -145 0 0 290
0 290 70 0 70 0 0 140 0 140 290 0 290 0 0 75 0 75 -70 0 -70 0 0 70 0 70 70
0 70 0 0 75 0 75 -145 0 -145 0 0 -145 0 -145 -215 0 -215 0 0 145 0 145 -75
0 -75 0 0 70 0 70 145 0 145 0 0 -70 0 -70 75 0 75 0 0 70 0 70 285 0 285 0 0
-70 0 -70 75 0 75 0 0 -75 0 -75 145 0 145 0 0 -70 0 -70 70 0 70 0 0 -75 0
-75 -70 0 -70 0 0 75 0 75 -75 0 -75 0 0 -145 0 -145 -70 0 -70 0 0 70 0 70
-145 0 -145 0 0 -70 0 -70 70 0 70 0 0 -70 0 -70 220 0 220 0 0 70 0 70 70 0
70 0 0 -145 0 -145 -145 0 -145 0 0 -215 0 -215 75 0 75 0 0 145 0 145 145 0
145 0 0 70 0 70 80 0 80 0 0 59 c0 33 3 66 6 75 5 14 -6 16 -80 16 l-86 0 0
285 0 285 70 0 70 0 0 75 0 75 -70 0 -70 0 0 70 0 70 -75 0 -75 0 0 145 0 145
-70 0 -70 0 0 70 0 70 70 0 70 0 0 -70 0 -70 75 0 75 0 0 145 0 145 70 0 70 0
0 -215z m1880 140 l0 -75 70 0 70 0 0 -215 0 -215 75 0 75 0 0 -70 0 -70 70 0
70 0 0 -145 0 -145 -70 0 -70 0 0 -75 0 -75 -75 0 -75 0 0 -70 0 -70 -70 0
-70 0 0 70 0 70 70 0 70 0 0 75 0 75 -70 0 -70 0 0 70 0 70 70 0 70 0 0 75 0
75 -70 0 -70 0 0 285 0 285 -75 0 -75 0 0 -70 0 -70 -70 0 -70 0 0 145 0 145
145 0 145 0 0 -75z m-1590 -145 l0 -70 -75 0 -75 0 0 70 0 70 75 0 75 0 0 -70z
m2450 -1010 l0 -70 -70 0 -70 0 0 70 0 70 70 0 70 0 0 -70z m-4180 -1010 l0
-70 -75 0 -75 0 0 70 0 70 75 0 75 0 0 -70z m2740 -575 l0 -75 -145 0 -145 0
0 -145 0 -145 -70 0 -70 0 0 145 0 145 70 0 70 0 0 75 0 75 145 0 145 0 0 -75z
m290 0 l0 -75 70 0 70 0 0 -70 0 -70 75 0 75 0 0 -75 0 -75 70 0 70 0 0 -70 0
-70 -70 0 -70 0 0 70 0 70 -75 0 -75 0 0 -70 0 -70 -70 0 -70 0 0 215 0 215
-75 0 -75 0 0 75 0 75 75 0 75 0 0 -75z m-870 -290 l0 -75 -70 0 -70 0 0 -70
0 -70 -75 0 -75 0 0 70 0 70 75 0 75 0 0 75 0 75 70 0 70 0 0 -75z m720 -70
l0 -145 -70 0 -70 0 0 -75 0 -75 -70 0 -70 0 0 -140 0 -140 70 0 70 0 0 70 0
70 70 0 70 0 0 -70 0 -70 -70 0 -70 0 0 -75 0 -75 -145 0 -145 0 0 145 0 145
-70 0 -70 0 0 70 0 70 -75 0 -75 0 0 -70 0 -70 -145 0 -145 0 0 70 0 70 145 0
145 0 0 75 0 75 75 0 75 0 0 -75 0 -75 70 0 70 0 0 75 0 75 145 0 145 0 0 70
0 70 -70 0 -70 0 0 75 0 75 140 0 140 0 0 -145z m1010 -75 l0 -70 -70 0 -70 0
0 70 0 70 70 0 70 0 0 -70z m440 -145 l0 -75 70 0 70 0 0 -215 0 -215 -70 0
-70 0 0 -70 0 -70 -75 0 -75 0 0 145 0 145 75 0 75 0 0 70 0 70 -75 0 -75 0 0
145 0 145 75 0 75 0 0 -75z m-290 -290 l0 -215 -215 0 -215 0 0 215 0 215 215
0 215 0 0 -215z m-2740 5 l0 -70 -75 0 -75 0 0 70 0 70 75 0 75 0 0 -70z
m2160 -75 l0 -145 -70 0 -70 0 0 75 0 75 -75 0 -75 0 0 -75 0 -75 -70 0 -70 0
0 75 0 75 70 0 70 0 0 70 0 70 145 0 145 0 0 -145z m-2600 -70 l0 -75 75 0 75
0 0 -70 0 -70 -75 0 -75 0 0 -75 0 -75 145 0 145 0 0 -70 0 -70 -145 0 -145 0
0 -75 0 -75 -70 0 -70 0 0 220 0 220 70 0 70 0 0 70 0 70 -70 0 -70 0 0 75 0
75 70 0 70 0 0 -75z m720 -145 l0 -220 -70 0 -70 0 0 -145 0 -145 -70 0 -70 0
0 220 0 220 -75 0 -75 0 0 70 0 70 75 0 75 0 0 -70 0 -70 70 0 70 0 0 145 0
145 70 0 70 0 0 -220z m2170 -145 l0 -75 -70 0 -70 0 0 -70 0 -70 -220 0 -220
0 0 70 0 70 145 0 145 0 0 75 0 75 145 0 145 0 0 -75z m290 0 l0 -75 -75 0
-75 0 0 75 0 75 75 0 75 0 0 -75z m-2310 -290 l0 -75 -75 0 -75 0 0 75 0 75
75 0 75 0 0 -75z m290 0 l0 -75 -75 0 -75 0 0 75 0 75 75 0 75 0 0 -75z"/>
<path d="M3300 5135 l0 -145 -70 0 -70 0 0 -140 0 -140 -75 0 -75 0 0 -75 0
-75 145 0 145 0 0 75 0 75 145 0 145 0 0 215 0 215 -70 0 -70 0 0 70 0 70 -75
0 -75 0 0 -145z m150 -215 l0 -70 -75 0 -75 0 0 70 0 70 75 0 75 0 0 -70z"/>
<path d="M1420 4200 l0 -70 75 0 75 0 0 70 0 70 -75 0 -75 0 0 -70z"/>
<path d="M2290 4055 l0 -75 70 0 70 0 0 75 0 75 -70 0 -70 0 0 -75z"/>
<path d="M850 3770 l0 -70 215 0 215 0 0 -75 0 -75 -70 0 -70 0 0 -70 0 -70
70 0 70 0 0 70 0 70 70 0 70 0 0 75 0 75 -70 0 -70 0 0 70 0 70 -215 0 -215 0
0 -70z"/>
<path d="M2408 3703 c6 -2 18 -2 25 0 6 3 1 5 -13 5 -14 0 -19 -2 -12 -5z"/>
<path d="M2945 3690 c-3 -5 -22 -10 -41 -10 -24 0 -33 -4 -28 -12 4 -7 3 -8
-4 -4 -7 4 -28 -5 -47 -20 -19 -14 -35 -24 -35 -20 0 3 -8 -2 -18 -11 -10 -10
-17 -23 -15 -29 2 -6 -2 -14 -10 -17 -17 -6 -37 -88 -37 -147 0 -25 -5 -40
-12 -40 -10 0 -10 -2 -1 -8 6 -4 9 -19 6 -34 -3 -15 -10 -25 -15 -22 -5 4 -2
-9 7 -27 10 -19 12 -29 5 -22 -9 8 -19 9 -32 2 -12 -6 -18 -6 -18 0 0 6 -6 8
-14 5 -7 -3 -21 7 -30 21 -10 15 -25 34 -34 43 -41 42 -85 169 -69 198 7 13 6
15 -3 9 -10 -6 -12 -4 -7 8 3 10 3 17 -2 17 -4 0 -7 14 -6 30 1 17 -2 30 -7
30 -4 0 -8 7 -8 15 0 9 -7 18 -15 21 -8 4 -12 10 -9 15 3 5 -1 9 -9 9 -10 0
-16 -16 -19 -50 -3 -28 -12 -58 -22 -68 -10 -12 -16 -36 -16 -64 0 -41 6 -52
65 -121 36 -43 61 -77 56 -77 -5 0 -27 21 -48 48 -21 26 -55 65 -76 87 l-39
40 4 -55 c2 -33 8 -57 16 -60 16 -7 27 -136 12 -145 -6 -3 -10 -1 -10 6 0 7
-3 10 -6 7 -3 -3 7 -30 21 -59 23 -44 25 -56 15 -72 -8 -14 -9 -22 -1 -26 17
-11 1 -49 -25 -55 -24 -6 -24 -8 -24 -129 1 -112 3 -124 23 -150 21 -25 24
-26 42 -11 11 8 13 12 5 8 -13 -7 -13 -6 -1 10 9 11 18 13 24 7 6 -6 19 -6 34
0 14 5 28 7 33 4 5 -3 10 -1 12 4 1 4 14 11 28 15 16 5 20 4 12 -2 -7 -5 -10
-15 -7 -23 4 -11 -4 -13 -40 -11 -28 3 -45 0 -45 -7 0 -6 -14 -18 -32 -27 -69
-36 -72 -56 -14 -98 27 -21 39 -21 526 -21 488 0 499 0 526 21 15 11 37 33 48
48 20 26 21 42 24 333 3 290 2 306 -14 292 -12 -9 -15 -10 -10 -1 11 18 2 15
-30 -13 -15 -13 -31 -21 -34 -17 -3 4 -13 14 -23 21 -17 14 -18 13 -15 -5 4
-26 -31 -20 -53 8 -15 19 -20 20 -48 8 -31 -12 -40 -33 -21 -45 23 -14 0 -49
-27 -41 -16 5 -19 15 -17 74 1 90 1 90 22 95 15 4 15 5 0 6 -14 1 -17 12 -17
66 0 51 -5 72 -22 98 -30 43 -79 86 -106 93 -13 4 -23 13 -23 22 0 12 -3 13
-12 4 -14 -14 -32 -16 -24 -3 3 5 -1 12 -10 15 -9 4 -13 2 -8 -5 4 -7 1 -10
-7 -7 -8 3 -13 11 -11 17 1 6 -4 11 -10 12 -7 0 -25 3 -40 5 -14 2 -29 0 -33
-6z m-358 -403 c-6 -19 -22 -6 -25 20 -2 27 -2 27 13 8 8 -10 14 -23 12 -28z
m-109 -72 c13 -45 2 -66 -22 -42 -11 10 -16 34 -16 69 0 47 1 50 13 33 7 -11
18 -38 25 -60z m137 -25 c4 0 5 8 1 18 -3 10 1 7 11 -7 10 -13 18 -30 19 -38
3 -18 -58 28 -64 48 -2 9 2 8 11 -3 8 -10 18 -18 22 -18z m835 -39 c0 -9 -7
-3 -15 13 -19 36 -19 47 0 22 8 -11 15 -27 15 -35z m-250 9 c0 -5 -4 -10 -10
-10 -5 0 -10 5 -10 10 0 6 5 10 10 10 6 0 10 -4 10 -10z m-462 -51 c-7 -4 -16
-5 -22 -2 -5 3 -6 1 -2 -6 4 -6 11 -9 16 -6 5 3 11 1 14 -4 4 -5 2 -12 -3 -16
-6 -3 -25 8 -43 26 -18 17 -27 28 -21 24 21 -10 53 -14 53 -6 0 4 -6 13 -12
21 -7 8 -3 6 10 -5 16 -13 19 -21 10 -26z m730 -14 c7 -14 12 -33 12 -43 0
-14 -2 -14 -14 -2 -16 18 -30 70 -18 70 5 0 14 -11 20 -25z m-128 -5 c6 -11 9
-20 8 -21 -2 0 -10 -2 -19 -4 -9 -1 -31 -6 -50 -10 l-33 -7 29 31 c35 36 50
39 65 11z m78 -5 c-3 -3 -9 2 -12 12 -6 14 -5 15 5 6 7 -7 10 -15 7 -18z
m-738 -19 c0 -3 -4 -8 -10 -11 -5 -3 -10 -1 -10 4 0 6 5 11 10 11 6 0 10 -2
10 -4z m796 -55 c11 19 35 -78 25 -104 -7 -18 -8 -17 -14 10 -3 17 -12 37 -19
44 -12 13 -22 35 -43 94 -3 11 5 3 18 -18 18 -28 27 -35 33 -26z m-693 33 c-2
-7 4 -17 14 -22 17 -9 169 -172 161 -172 -2 0 -49 46 -106 103 -72 72 -97 103
-83 103 10 0 17 -6 14 -12z m367 12 c0 -2 -7 -6 -15 -10 -8 -3 -15 -1 -15 4 0
6 7 10 15 10 8 0 15 -2 15 -4z m60 -7 c0 6 7 11 17 11 14 0 14 -2 -2 -20 -10
-11 -28 -20 -39 -20 -16 0 -18 2 -7 9 8 5 10 14 5 22 -6 12 -5 12 9 0 11 -9
17 -10 17 -2z m-64 -93 c8 -11 13 -30 13 -41 -1 -16 -2 -16 -6 -3 -2 9 -10 15
-16 12 -8 -3 -12 13 -13 53 -1 32 0 45 3 28 3 -16 11 -38 19 -49z m-594 -20
c16 -30 -7 -11 -43 37 l-33 42 33 -30 c18 -16 37 -38 43 -49z m238 20 c0 -2
-7 -7 -16 -10 -8 -3 -12 -2 -9 4 6 10 25 14 25 6z m-90 -51 c0 -8 -4 -15 -10
-15 -5 0 -7 7 -4 15 4 8 8 15 10 15 2 0 4 -7 4 -15z m21 -8 c-10 -9 -11 -8 -5
6 3 10 9 15 12 12 3 -3 0 -11 -7 -18z m770 -122 c5 4 9 1 9 -5 0 -17 -25 -6
-26 11 -1 9 1 10 3 1 3 -7 9 -10 14 -7z m-898 -26 c-30 -51 -45 -55 -21 -6 12
25 26 43 30 41 5 -3 0 -19 -9 -35z m907 -45 c0 -8 -4 -14 -10 -14 -5 0 -10 9
-10 21 0 11 5 17 10 14 6 -3 10 -13 10 -21z"/>
<path d="M850 3480 l0 -70 -75 0 -75 0 0 -75 0 -75 75 0 75 0 0 75 0 75 70 0
70 0 0 70 0 70 -70 0 -70 0 0 -70z"/>
<path d="M2575 3375 c23 -8 83 -10 79 -3 -3 4 -24 8 -47 7 -23 0 -37 -2 -32
-4z"/>
<path d="M3342 3347 l-1 -30 15 28 c17 33 17 32 0 32 -8 0 -13 -12 -14 -30z"/>
<path d="M3390 3369 c0 -5 9 -9 20 -9 11 0 20 2 20 4 0 2 -9 6 -20 9 -11 3
-20 1 -20 -4z"/>
<path d="M3439 3356 c-9 -18 -8 -19 3 -6 7 8 23 14 36 12 12 -2 22 1 22 5 0
19 -52 9 -61 -11z"/>
<path d="M1140 3190 l0 -70 70 0 70 0 0 -75 0 -75 70 0 70 0 0 -145 0 -145
-215 0 -215 0 0 -70 0 -70 145 0 145 0 0 -70 0 -70 145 0 145 0 0 -75 0 -75
70 0 70 0 0 -70 0 -70 -70 0 -70 0 0 -75 0 -75 70 0 70 0 0 75 0 75 75 0 75 0
0 70 0 70 70 0 70 0 0 75 0 75 75 0 75 0 0 70 0 70 -145 0 -145 0 0 145 0 145
70 0 70 0 0 -75 0 -75 75 0 75 0 0 145 0 145 70 0 70 0 0 -70 c0 -40 4 -70 10
-70 6 0 10 78 10 215 l0 215 -80 0 -80 0 0 -70 0 -70 -145 0 -145 0 0 -145 0
-145 -75 0 -75 0 0 70 0 70 -145 0 -145 0 0 75 0 75 -70 0 -70 0 0 70 0 70
-70 0 -70 0 0 -70z m570 -650 l0 -140 -70 0 -70 0 0 140 0 140 70 0 70 0 0
-140z"/>
<path d="M2345 2725 c8 -36 12 -42 25 -29 5 5 1 19 -11 34 l-21 25 7 -30z"/>
<path d="M4600 1460 l0 -70 70 0 70 0 0 70 0 70 -70 0 -70 0 0 -70z"/>
<path d="M4600 5355 l0 -505 505 0 505 0 0 505 0 505 -505 0 -505 0 0 -505z
m870 0 l0 -365 -365 0 -365 0 0 365 0 365 365 0 365 0 0 -365z"/>
<path d="M4890 5355 l0 -215 215 0 215 0 0 215 0 215 -215 0 -215 0 0 -215z"/>
<path d="M1420 5065 l0 -215 75 0 75 0 0 215 0 215 -75 0 -75 0 0 -215z"/>
<path d="M4740 4635 l0 -75 145 0 145 0 0 75 0 75 -145 0 -145 0 0 -75z"/>
<path d="M5320 3190 l0 -70 75 0 75 0 0 -145 0 -145 -75 0 -75 0 0 70 0 70
-70 0 -70 0 0 -70 0 -70 70 0 70 0 0 -75 0 -75 -145 0 -145 0 0 -70 0 -70 145
0 145 0 0 70 0 70 75 0 75 0 0 -70 0 -70 70 0 70 0 0 70 0 70 -70 0 -70 0 0
75 0 75 70 0 70 0 0 215 0 215 -145 0 -145 0 0 -70z"/>
<path d="M270 1025 l0 -505 505 0 505 0 0 505 0 505 -505 0 -505 0 0 -505z
m870 0 l0 -365 -365 0 -365 0 0 365 0 365 365 0 365 0 0 -365z"/>
<path d="M560 1025 l0 -215 215 0 215 0 0 215 0 215 -215 0 -215 0 0 -215z"/>
</g>
</svg>
